<svg width="100" height="55" viewBox="0 0 100 55" fill="none" xmlns="http://www.w3.org/2000/svg">
<path d="M80.9338 0.475912C79.9819 0.534296 79.5631 0.574911 78.8904 0.678987C73.5521 1.50144 68.8509 4.75571 66.1678 9.48481C64.2157 12.9218 63.4745 16.9072 64.0558 20.857C64.8833 26.4898 68.4016 31.4016 73.4962 34.034C75.6894 35.1687 78.0806 35.821 80.6038 35.9759C81.2105 36.014 82.6371 35.9911 83.2057 35.9378C85.5715 35.7119 87.7089 35.0925 89.7396 34.0492C94.2707 31.7189 97.5859 27.5711 98.8424 22.6593C99.6116 19.6563 99.5862 16.5061 98.7663 13.5184C97.4362 8.66743 94.0753 4.58817 89.5366 2.31881C87.5515 1.32629 85.3811 0.72214 83.0788 0.524142C82.6574 0.486066 81.2587 0.455605 80.9338 0.475912ZM82.2944 11.1729C83.9749 11.3404 85.4725 12.0461 86.658 13.229C88.4501 15.0237 89.1456 17.6103 88.4983 20.0777C88.242 21.0474 87.7267 22.0424 87.0819 22.8116C86.3102 23.7279 85.2466 24.4844 84.1576 24.8931C83.3072 25.2104 82.5305 25.35 81.6065 25.3449C80.784 25.3424 80.1266 25.2358 79.3727 24.9845C78.3116 24.6291 77.4257 24.0808 76.6159 23.271C75.6894 22.342 75.0675 21.2606 74.7527 20.0193C74.4024 18.646 74.4608 17.2473 74.9304 15.8817C75.0624 15.4933 75.433 14.7419 75.659 14.3967C76.8952 12.5208 78.8218 11.3632 81.0353 11.1652C81.2689 11.1449 82.0507 11.15 82.2944 11.1729Z" fill="black"/>
<path d="M39.4101 17.9733C33.8586 27.5914 29.3148 35.4657 29.3148 35.4758C29.3148 35.4834 38.4075 35.491 49.5233 35.491C61.822 35.491 69.7266 35.4809 69.7216 35.4682C69.7038 35.4123 49.5334 0.486065 49.5207 0.486065C49.5131 0.486065 44.9642 8.3552 39.4101 17.9733ZM52.3765 22.1719L55.2195 27.1015L52.3714 27.1091C50.8026 27.1117 48.2363 27.1117 46.6675 27.1091L43.8118 27.1015L46.6599 22.1693C48.2261 19.4583 49.5131 17.2397 49.5207 17.2397C49.5283 17.2423 50.8128 19.4608 52.3765 22.1719Z" fill="black"/>
<path d="M5.88 3.25296L5.87239 5.10601L2.94558 3.35196C1.33367 2.38735 0.0111496 1.60298 0.0060727 1.61059C0.000995839 1.61567 -0.00154259 9.10404 0.000995839 18.25L0.00861113 34.8818L2.92781 33.1303C4.53464 32.1682 5.85462 31.3788 5.86731 31.3788C5.87747 31.3788 5.88508 32.2139 5.88508 33.2318V35.0874L12.4038 35.0773C19.189 35.0671 19.0418 35.0697 20.1511 34.9554C21.2781 34.8412 22.4433 34.6178 23.5221 34.3081C26.949 33.3283 30.1296 31.0183 32.0741 28.1042C33.4702 26.01 34.3536 23.5655 34.6937 20.857C34.8308 19.7756 34.8841 18.2449 34.8257 17.1636C34.6379 13.7519 33.7088 10.8378 31.9979 8.29428C30.3403 5.832 27.8654 3.84441 25.0096 2.67927C23.6617 2.13097 22.06 1.73244 20.4049 1.53952C19.3007 1.41006 19.651 1.41767 12.5307 1.40752L5.88508 1.39736L5.88 3.25296ZM16.841 11.6831C22.8494 15.2877 27.7638 18.2399 27.7613 18.2424C27.7562 18.2449 22.8697 21.1743 16.9019 24.7535C10.934 28.3301 6.012 31.2798 5.96885 31.3077L5.88508 31.3585V18.2449C5.88508 11.0332 5.89016 5.1314 5.89777 5.1314C5.90539 5.1314 10.8299 8.08105 16.841 11.6831Z" fill="black"/>
<path d="M12.7008 11.5816C11.462 11.7085 10.2639 12.1882 9.28658 12.9472C9.00227 13.1681 8.51743 13.6377 8.26613 13.9398C7.60614 14.7241 7.07814 15.8157 6.86491 16.831C6.67961 17.7068 6.67453 18.7171 6.84968 19.5776C7.36245 22.0856 9.24089 24.0783 11.6981 24.7129C12.2845 24.8626 12.5434 24.8931 13.31 24.8931C14.0614 24.8906 14.3355 24.8626 14.8813 24.7256C15.5362 24.5631 16.3663 24.2026 16.9019 23.8422C18.5265 22.7583 19.552 21.1387 19.8515 19.1816C19.915 18.7577 19.9277 17.8692 19.8744 17.4555C19.6764 15.902 19.024 14.5617 17.9426 13.4828C17.4146 12.9523 16.8714 12.5665 16.2038 12.239C15.5464 11.9141 14.9651 11.7313 14.2822 11.6272C13.8913 11.5689 13.0587 11.5435 12.7008 11.5816Z" fill="black"/>
<path d="M34.8105 37.6005C33.0488 37.7655 31.4065 38.4534 30.0636 39.583C29.7463 39.8521 29.1879 40.4258 28.9239 40.7583C27.9745 41.9539 27.3907 43.3018 27.1571 44.8452C27.0861 45.2995 27.0607 46.3048 27.1038 46.7794C27.2942 48.8051 28.1573 50.6404 29.5915 52.0619C31.2136 53.6688 33.488 54.5674 35.7624 54.4963C37.8414 54.4303 39.7097 53.6738 41.2657 52.2701C41.4206 52.1279 41.55 52.0035 41.55 51.9934C41.55 51.9782 40.4788 50.9095 39.3619 49.8078L38.8872 49.3407L38.7273 49.493C37.8084 50.3663 36.4605 50.8359 35.1735 50.7267C33.0336 50.5465 31.3379 49.0285 30.9089 46.9114C30.8582 46.6601 30.8506 46.5459 30.8506 46.0382C30.8506 45.5305 30.8582 45.4163 30.9089 45.165C31.1526 43.9567 31.8228 42.9109 32.8077 42.2027C33.2722 41.8676 34.0033 41.5503 34.5821 41.431C35.1253 41.3167 35.7523 41.3041 36.2955 41.3929C37.2017 41.5401 38.0445 41.9539 38.7146 42.5758L38.9405 42.784L39.0954 42.6317C39.1817 42.5479 39.7934 41.9615 40.456 41.3294L41.6567 40.1795L41.446 39.979C40.0397 38.6463 38.4709 37.8924 36.5747 37.636C36.2219 37.5878 35.1684 37.5675 34.8105 37.6005Z" fill="black"/>
<path d="M48.8607 37.8442C48.7973 37.8492 48.5815 37.8746 48.3784 37.9025C46.6295 38.1437 45.015 38.9255 43.7306 40.1567C42.5578 41.2812 41.715 42.7738 41.3622 44.3527C41.2378 44.9162 41.1921 45.3148 41.1769 45.9671C41.1617 46.6449 41.1845 47.0079 41.286 47.5994C41.517 48.965 42.0679 50.2038 42.9614 51.3562C43.233 51.7065 43.9286 52.4097 44.2789 52.6889C45.2815 53.4885 46.5101 54.0749 47.7311 54.3389C48.5003 54.5064 49.4319 54.5699 50.1833 54.5064C52.5998 54.3008 54.7474 53.1179 56.1993 51.1887C56.9482 50.1911 57.4584 49.0615 57.7046 47.8405C57.829 47.2211 57.8569 46.9216 57.8569 46.1778C57.8569 45.4493 57.8315 45.1625 57.7173 44.5786C57.3924 42.9286 56.6156 41.469 55.4226 40.276C54.0163 38.8697 52.2242 38.0345 50.2315 37.8518C49.9624 37.8289 49.1298 37.8239 48.8607 37.8442ZM50.1122 41.6214C50.9067 41.7254 51.6733 42.0377 52.2952 42.5149C52.5415 42.7027 52.9628 43.1216 53.1558 43.3729C53.9909 44.4492 54.298 45.8402 53.9985 47.1907C53.5314 49.2874 51.6657 50.7749 49.508 50.7724C47.5941 50.7699 45.9111 49.6022 45.2155 47.7974C44.8297 46.7998 44.8297 45.5534 45.2181 44.5507C45.8298 42.9667 47.2336 41.8523 48.9115 41.6214C49.244 41.5757 49.767 41.5757 50.1122 41.6214Z" fill="black"/>
<path d="M92.9025 38.2199C90.8997 38.4635 89.303 39.4535 88.5593 40.9131C88.242 41.5376 88.0871 42.3448 88.1531 43.0251C88.242 43.9288 88.5923 44.6624 89.2573 45.33C89.6813 45.7514 90.2169 46.1271 90.8718 46.4545C91.4708 46.7541 92.0268 46.9648 93.5625 47.4851C93.989 47.6273 94.4865 47.805 94.6667 47.8786C95.573 48.2467 96.04 48.5767 96.2355 48.9879C96.3142 49.1529 96.3167 49.1732 96.3167 49.4778C96.3167 49.79 96.3167 49.7976 96.2304 49.955C96.1111 50.1733 95.9182 50.3409 95.6059 50.4957C94.5804 50.9983 93.0802 50.912 92.0725 50.2876C91.9506 50.2114 91.7577 50.0566 91.6333 49.9347C91.2932 49.6022 91.1205 49.3153 90.9708 48.8432C90.9251 48.696 90.887 48.5741 90.8845 48.569C90.8794 48.564 87.3865 49.427 87.3764 49.4372C87.3662 49.4473 87.5388 50.0007 87.6099 50.1911C87.7977 50.6886 88.176 51.3334 88.539 51.7776C89.4173 52.8539 90.7855 53.6611 92.2933 53.9962C95.0272 54.6029 97.8042 53.7881 99.1775 51.9782C99.8934 51.0339 100.157 49.8103 99.9086 48.5843C99.6167 47.145 98.6445 46.0154 96.9666 45.1675C96.3649 44.8629 95.9537 44.7005 94.6794 44.2664C93.4483 43.8476 93.2021 43.7587 92.8162 43.5861C92.2958 43.3551 91.976 43.1266 91.8592 42.9007C91.7399 42.6672 91.8567 42.261 92.108 42.0427C92.8086 41.4259 94.5677 41.398 95.4105 41.9894C95.6872 42.1824 95.8547 42.388 96.0299 42.7433C96.1136 42.916 96.1898 43.0556 96.1974 43.0556C96.2025 43.0556 96.9665 42.7814 97.8905 42.4438L99.571 41.832L99.4466 41.5503C99.1648 40.9106 98.7917 40.3598 98.3119 39.88C97.36 38.9306 96.1314 38.3849 94.5703 38.2199C94.126 38.1742 93.2833 38.1742 92.9025 38.2199Z" fill="black"/>
<path d="M0.630527 53.8947H4.26048V50.5287C4.26048 48.6782 4.27064 47.1678 4.28079 47.1729C4.29348 47.1754 5.64901 48.6909 7.29391 50.5363L10.2842 53.8947H15.0336L14.8787 53.7373C14.2721 53.1154 9.15966 47.6146 9.17743 47.5994C9.18758 47.5892 9.30181 47.5613 9.42619 47.5359C10.6726 47.2871 11.8732 46.6449 12.5129 45.891C12.8226 45.5255 13.1399 44.9797 13.2541 44.6142C13.4115 44.1166 13.4369 43.9288 13.4369 43.2713C13.4369 42.7357 13.4293 42.6266 13.3785 42.3727C13.2237 41.6087 12.8886 40.9207 12.4012 40.3623C11.6016 39.4485 10.406 38.791 9.05812 38.527C8.26359 38.3722 8.42097 38.3772 4.35694 38.3671L0.630527 38.3569V53.8947ZM7.96659 41.7711C8.52505 41.8625 8.83982 41.9691 9.20281 42.1925C9.61911 42.4489 9.81965 42.7941 9.81965 43.2536C9.81965 43.9872 9.24343 44.472 8.1189 44.6827C7.83967 44.736 7.74321 44.7385 6.045 44.7487L4.26048 44.7589V43.251C4.26048 42.4235 4.2681 41.7356 4.28079 41.7254C4.29095 41.7153 5.06517 41.7102 5.99931 41.7178C7.43099 41.728 7.74321 41.7356 7.96659 41.7711Z" fill="black"/>
<path d="M15.5311 53.8693H26.4718V50.5186H19.1865V47.7263H25.8879V44.3502H19.1865V41.7102H26.4718V38.3595H15.5311V53.8693Z" fill="black"/>
<path d="M58.8114 53.8947H62.4667L62.4794 47.1628L68.4701 53.8947L74.0166 53.882C77.0678 53.8744 79.7001 53.8617 79.8677 53.8541C82.1421 53.7525 84.1094 52.9884 85.6223 51.6177C87.1606 50.2241 88.0008 48.1172 87.917 45.8605C87.8104 42.9363 86.3584 40.6618 83.7642 39.352C82.9544 38.9433 82.1624 38.6869 81.1927 38.5245C80.284 38.3722 80.4312 38.3772 76.5373 38.3671L72.9504 38.3569L72.9378 53.5951L70.1455 50.6074C68.6097 48.965 67.3557 47.6146 67.3583 47.6044C67.3608 47.5968 67.4877 47.5638 67.6375 47.5308C68.2569 47.4014 68.9702 47.145 69.4474 46.8784C69.8815 46.6373 70.1709 46.4215 70.5009 46.089C70.8486 45.7438 71.0441 45.4722 71.2725 45.0229C71.8056 43.9669 71.7802 42.459 71.204 41.2787C70.5491 39.9358 69.0616 38.8925 67.2974 38.5397C66.4495 38.3696 66.6145 38.3747 62.5251 38.3671L58.8114 38.3569V53.8947ZM65.721 41.7356C66.5308 41.7864 67.0664 41.9488 67.5334 42.2839C67.8888 42.5352 68.0564 42.949 67.998 43.4236C67.9523 43.7917 67.6934 44.1471 67.3151 44.3578C67.0968 44.4796 66.678 44.6167 66.3226 44.6827C66.0485 44.736 65.9469 44.7385 64.2512 44.7487L62.4667 44.7589V41.7102H63.8959C64.6802 41.7102 65.5027 41.7229 65.721 41.7356ZM80.0834 41.7737C81.4034 41.9361 82.3985 42.3702 83.1296 43.1038C83.5306 43.5074 83.7464 43.8399 83.9749 44.4162C84.1881 44.9467 84.2719 45.429 84.2719 46.1271C84.2719 46.9521 84.1602 47.475 83.8403 48.1477C83.5357 48.7873 83.1727 49.1986 82.5229 49.6352C82.0787 49.9322 81.6776 50.1073 81.0633 50.2774C80.3221 50.4805 79.8321 50.5186 78.0095 50.5186H76.6058V41.7051L78.1745 41.7178C79.426 41.728 79.8093 41.7381 80.0834 41.7737Z" fill="black"/>
</svg>
