<svg width="24" height="25" viewBox="0 0 24 25" fill="none" xmlns="http://www.w3.org/2000/svg">
<rect y="0.5" width="24" height="24" rx="12" fill="black"/>
<path d="M15.6867 7.06251L13.1255 10.7744C13.093 10.8267 13.0796 10.8887 13.0878 10.9497C13.096 11.0107 13.1252 11.067 13.1704 11.1089C13.2155 11.1508 13.2738 11.1756 13.3353 11.1792C13.3968 11.1827 13.4576 11.1647 13.5073 11.1283L15.977 9.13321V15.629L8.88599 7.08769C8.67141 6.82998 8.38264 6.64464 8.05898 6.55688C7.73532 6.46911 7.39248 6.48319 7.0771 6.5972C6.76172 6.71121 6.48913 6.91962 6.29641 7.19406C6.10368 7.4685 6.00019 7.79565 6 8.131V17.013C6 18.458 7.72338 18.6953 8.26558 17.9012L10.9169 14.074C10.9458 14.0323 10.9603 13.9824 10.9584 13.9317C10.9565 13.881 10.9382 13.8324 10.9063 13.793C10.8672 13.7438 10.8103 13.7122 10.7479 13.705C10.6855 13.6978 10.6228 13.7156 10.5736 13.7545L8.02298 15.7868V9.20612L15.114 17.7368C16.2289 19.0466 18 18.2578 18 16.6935V7.80754C18 6.47391 16.3747 6.08416 15.6867 7.06251Z" fill="white"/>
</svg>
