<?xml version="1.0" standalone="no"?>
<!DOCTYPE svg PUBLIC "-//W3C//DTD SVG 20010904//EN"
 "http://www.w3.org/TR/2001/REC-SVG-20010904/DTD/svg10.dtd">
<svg version="1.0" xmlns="http://www.w3.org/2000/svg"
 width="99.000000pt" height="99.000000pt" viewBox="0 0 3307.000000 3307.000000"
 preserveAspectRatio="xMidYMid meet">

<g transform="translate(0.000000,3307.000000) scale(0.100000,-0.100000)"
fill="#000000" stroke="none">
<path d="M15834 29535 c-23 -23 -25 -32 -20 -68 4 -23 26 -85 49 -137 40 -92
41 -98 39 -190 -1 -52 -22 -635 -47 -1295 -49 -1325 -41 -1231 -122 -1407 -40
-90 -43 -100 -31 -125 22 -46 56 -50 134 -17 59 25 82 29 159 29 85 0 94 -2
158 -37 79 -44 85 -45 121 -17 33 26 33 57 0 139 -14 36 -34 97 -44 136 -18
71 -18 82 20 1035 22 530 40 995 40 1034 0 42 4 65 9 60 5 -6 244 -529 531
-1164 l521 -1155 -16 -38 c-14 -35 -14 -42 0 -68 19 -36 57 -48 99 -30 157 65
232 66 351 5 67 -35 76 -37 103 -26 48 20 56 52 28 119 -23 57 -59 164 -70
212 -3 14 -1 111 5 215 5 105 27 683 49 1285 43 1219 34 1114 118 1288 23 48
38 91 35 100 -19 54 -57 63 -153 37 -80 -21 -148 -18 -276 12 -125 29 -154 26
-176 -22 -9 -21 -6 -35 20 -93 46 -104 62 -178 62 -288 0 -113 -48 -1355 -52
-1359 -2 -2 -146 330 -322 738 l-319 740 7 91 c3 50 9 115 12 143 6 51 5 54
-30 89 -40 40 -53 41 -136 8 -33 -13 -84 -19 -187 -22 -163 -5 -292 8 -408 40
-44 12 -115 23 -157 26 -73 3 -79 2 -104 -23z"/>
<path d="M19247 29310 c-17 -14 -27 -31 -27 -48 -1 -33 -24 -162 -39 -218 -6
-23 -29 -68 -51 -100 -44 -65 -49 -91 -22 -124 20 -25 18 -25 198 -14 l121 7
144 -43 c172 -50 261 -89 284 -123 21 -32 48 58 -397 -1307 -381 -1169 -358
-1109 -482 -1248 -62 -69 -71 -107 -36 -142 17 -17 33 -20 98 -20 235 0 463
-69 655 -199 97 -65 156 -77 182 -38 15 24 16 37 5 134 -6 59 -8 130 -5 158
10 72 760 2362 782 2387 27 30 99 20 283 -42 172 -57 224 -85 322 -177 81 -76
113 -84 156 -37 18 20 22 37 22 88 0 75 23 148 81 255 46 86 48 118 5 146 -19
13 -35 14 -92 5 -129 -18 -183 -13 -386 39 -320 82 -1038 312 -1339 430 -169
66 -251 114 -333 191 -63 60 -92 69 -129 40z"/>
<path d="M13685 29174 c-53 -41 -168 -100 -251 -130 -138 -49 -246 -67 -414
-66 -151 0 -174 -5 -185 -38 -8 -26 8 -54 55 -96 25 -23 45 -54 57 -87 17 -49
18 -120 15 -1397 -4 -1495 0 -1403 -71 -1583 -61 -152 -30 -192 100 -133 70
32 183 62 297 77 105 14 135 28 152 69 12 28 10 37 -23 108 -68 144 -67 132
-67 615 0 240 3 437 6 437 3 0 26 -17 49 -38 47 -41 125 -72 181 -72 28 0 35
4 40 28 29 121 148 229 260 235 l46 2 208 -381 c224 -410 240 -448 240 -592 0
-63 18 -94 67 -113 38 -14 47 -12 104 28 180 123 414 186 685 182 127 -1 144
5 144 54 0 24 -10 39 -47 71 -27 23 -84 77 -127 121 l-79 80 -615 1125 c-338
619 -626 1152 -640 1184 -18 44 -26 88 -31 169 -7 103 -9 112 -35 134 -32 27
-90 31 -121 7z m-136 -1368 c100 -181 181 -332 181 -337 0 -5 -21 -9 -47 -9
-114 -1 -260 -53 -304 -108 -19 -24 -19 -20 -19 383 0 225 2 406 4 404 2 -2
86 -152 185 -333z"/>
<path d="M11256 28077 l-80 -52 -280 -1 c-254 0 -289 -2 -361 -21 -227 -61
-402 -148 -608 -305 -228 -174 -393 -401 -459 -633 -30 -106 -33 -343 -5 -445
86 -309 358 -512 787 -587 173 -31 592 -20 741 18 130 33 420 30 562 -7 157
-40 287 -138 321 -242 100 -299 -283 -627 -754 -649 -73 -3 -131 -1 -158 6
-52 14 -116 70 -144 125 -45 88 -16 224 62 290 l32 26 -48 21 c-112 50 -233
48 -349 -5 -208 -95 -288 -359 -169 -562 26 -44 125 -144 143 -144 18 0 13
-16 -24 -79 -19 -32 -35 -62 -35 -65 0 -18 58 -1 127 37 76 41 80 42 168 41
50 0 155 -4 235 -9 114 -6 170 -4 264 9 225 32 460 106 628 199 304 167 553
460 629 742 31 114 31 306 0 425 -28 111 -137 329 -196 397 -92 105 -243 183
-435 224 -93 20 -133 23 -345 23 -231 0 -430 -17 -535 -45 -19 -5 -102 -12
-185 -15 -304 -12 -478 39 -577 171 -55 73 -82 160 -76 249 10 154 109 267
332 376 124 62 232 90 340 90 102 0 178 -19 284 -71 87 -43 108 -45 159 -12
14 10 32 32 39 49 12 28 11 38 -2 71 -30 72 -11 147 83 316 22 40 24 51 15 72
-6 14 -20 25 -29 25 -10 0 -54 -24 -97 -53z"/>
<path d="M22505 28017 c-10 -15 -15 -45 -14 -83 2 -66 -16 -117 -60 -173 -16
-20 -456 -460 -978 -978 l-949 -941 -130 -63 c-147 -71 -164 -83 -164 -115 0
-23 42 -64 65 -64 29 0 196 -94 285 -160 76 -56 102 -70 130 -70 52 0 67 16
95 99 50 147 71 174 398 493 l304 297 5 -62 c6 -66 30 -124 74 -176 25 -31 27
-31 51 -16 100 66 265 60 353 -14 l34 -28 -123 -419 c-132 -451 -139 -467
-238 -576 -45 -49 -53 -64 -53 -97 0 -56 29 -88 88 -97 73 -10 200 -53 282
-94 115 -58 215 -133 328 -247 57 -57 111 -103 121 -103 10 0 26 9 37 21 17
18 18 32 14 108 -14 235 -39 129 365 1517 283 972 374 1271 398 1312 18 29 58
83 91 119 54 62 58 69 53 105 -7 54 -30 75 -96 88 -238 48 -429 156 -613 349
-95 99 -124 112 -153 68z m-280 -1296 c-58 -199 -105 -365 -105 -368 0 -3 -18
11 -41 32 -57 51 -155 113 -198 125 -20 5 -58 10 -86 10 l-50 0 290 290 c160
160 291 287 293 282 1 -4 -45 -171 -103 -371z"/>
<path d="M8134 26432 c-7 -4 -35 -47 -63 -97 -129 -224 -276 -367 -506 -492
-122 -67 -116 -125 18 -174 157 -57 145 -46 899 -798 467 -467 726 -733 765
-786 60 -83 132 -213 152 -275 36 -116 30 -248 -16 -332 -22 -40 -37 -54 -88
-79 -162 -80 -374 -32 -595 135 -51 39 -365 342 -792 766 l-708 702 -44 91
c-24 51 -51 113 -60 138 -11 30 -25 50 -42 58 -46 20 -71 4 -115 -73 -141
-245 -285 -394 -484 -502 -94 -50 -115 -70 -115 -109 0 -40 19 -56 100 -84
138 -49 141 -51 880 -783 388 -384 729 -716 759 -738 214 -161 560 -224 861
-159 446 97 815 425 950 846 97 303 75 636 -61 905 -81 161 -108 190 -808 889
-717 716 -713 710 -766 859 -14 41 -31 80 -37 87 -11 14 -66 17 -84 5z"/>
<path d="M25028 26331 c-13 -11 -30 -39 -37 -63 -23 -79 -84 -182 -141 -238
-30 -30 -452 -426 -938 -880 -598 -559 -901 -836 -940 -858 -31 -17 -93 -44
-137 -58 -94 -30 -115 -46 -115 -89 0 -38 21 -59 112 -109 186 -102 341 -269
448 -483 27 -53 55 -100 62 -104 16 -11 69 -11 85 -1 6 4 28 45 47 91 65 154
82 175 385 457 156 145 285 263 287 261 2 -1 -64 -207 -146 -457 -168 -510
-164 -503 -278 -563 -76 -40 -99 -73 -87 -125 8 -38 35 -62 111 -100 169 -85
347 -279 457 -498 42 -84 60 -104 92 -104 35 0 51 33 64 130 7 47 21 118 32
158 14 55 205 574 358 974 l10 27 85 -40 c130 -61 221 -82 356 -82 254 -1 460
102 721 362 157 157 240 265 304 394 115 233 113 443 -5 692 -111 233 -352
526 -655 797 -255 227 -342 323 -404 445 -42 85 -82 104 -133 64z m466 -1012
c58 -51 132 -150 164 -218 21 -45 24 -64 20 -120 -9 -123 -95 -251 -304 -450
-153 -146 -265 -230 -384 -289 -93 -46 -97 -47 -190 -47 -85 0 -102 3 -155 29
-65 31 -219 176 -248 231 l-15 30 444 415 c245 228 458 423 475 434 70 44 131
39 193 -15z"/>
<path d="M12435 24604 c-233 -24 -367 -57 -633 -156 -215 -79 -401 -174 -527
-268 -22 -16 -57 -38 -77 -50 -53 -29 -274 -246 -362 -354 -121 -150 -243
-367 -318 -566 -51 -137 -55 -191 -68 -820 -5 -272 -15 -535 -20 -585 -11 -88
-38 -216 -140 -645 -58 -248 -73 -407 -51 -547 39 -243 80 -387 275 -961 47
-139 86 -258 86 -263 0 -6 18 -57 41 -112 52 -130 121 -233 253 -377 84 -91
106 -121 106 -145 0 -16 -7 -117 -16 -225 -28 -345 -5 -584 90 -915 15 -49 40
-125 57 -167 57 -143 199 -278 337 -318 23 -7 42 -15 42 -18 0 -3 -24 -91 -54
-196 -60 -208 -72 -261 -111 -471 -14 -77 -33 -174 -42 -215 -24 -117 -141
-594 -173 -705 -16 -55 -54 -197 -84 -315 -31 -118 -62 -240 -70 -270 -43
-159 -119 -475 -136 -564 -29 -149 -27 -292 6 -392 14 -44 36 -92 48 -109 13
-16 30 -52 39 -79 9 -27 28 -63 41 -81 29 -37 127 -91 241 -131 69 -24 96 -28
190 -29 90 0 124 4 185 24 67 22 83 32 151 100 42 42 96 91 119 110 81 67 202
233 318 438 45 78 74 138 147 298 8 17 24 57 36 90 67 185 225 522 414 885 65
125 146 304 187 415 56 152 156 460 173 535 34 154 50 209 108 365 32 88 74
205 92 260 17 55 45 127 60 160 15 33 38 94 50 135 13 41 39 109 58 150 19 41
58 131 87 200 123 291 209 414 359 512 78 51 123 60 168 35 40 -23 118 -104
188 -196 76 -100 110 -159 173 -296 22 -49 63 -138 91 -198 28 -59 72 -165 97
-235 54 -149 125 -295 217 -445 37 -59 67 -110 67 -114 0 -3 20 -38 44 -77 23
-39 56 -98 73 -131 16 -33 54 -105 83 -160 30 -55 73 -138 96 -185 23 -47 85
-171 138 -277 52 -105 99 -199 105 -210 21 -38 156 -262 218 -361 l65 -103
-55 -58 c-36 -40 -61 -79 -78 -122 -22 -59 -24 -78 -24 -234 0 -169 0 -171 37
-285 20 -63 62 -180 93 -260 31 -80 78 -208 105 -285 53 -154 78 -214 120
-285 31 -53 35 -86 45 -403 6 -176 19 -272 69 -497 18 -85 37 -175 41 -200 4
-25 21 -99 37 -165 40 -164 65 -295 73 -390 8 -97 46 -238 87 -324 30 -62 62
-100 198 -228 30 -29 91 -89 135 -134 89 -91 366 -332 490 -425 227 -172 442
-307 614 -387 47 -21 194 -80 326 -129 269 -101 429 -175 525 -242 36 -24 90
-62 120 -82 69 -48 187 -88 315 -109 85 -13 110 -22 170 -59 38 -24 108 -65
155 -91 47 -26 135 -80 195 -119 136 -89 257 -164 398 -247 60 -35 119 -71
132 -79 13 -8 70 -42 127 -74 128 -74 274 -173 353 -241 201 -172 314 -219
599 -253 305 -37 526 -14 784 79 207 75 366 171 476 290 57 61 75 86 142 189
66 101 117 273 136 455 16 158 16 608 -1 725 -30 215 -120 496 -214 670 -63
116 -79 140 -262 385 -150 200 -242 334 -349 504 -129 204 -312 564 -393 771
-97 248 -104 274 -114 460 -15 289 -18 308 -76 500 -66 216 -102 270 -418 614
-171 185 -190 210 -215 275 -31 80 -83 170 -176 306 -147 217 -161 375 -99
1150 29 356 12 675 -45 850 -26 80 -65 268 -79 380 -22 172 -32 250 -41 310
-22 149 -51 854 -55 1340 -3 362 -10 453 -45 610 -22 96 -77 229 -114 278 -18
23 -30 57 -37 98 -32 198 -80 326 -149 402 -38 42 -62 58 -116 77 -196 71
-467 -30 -543 -201 -10 -22 -34 -52 -54 -67 -116 -86 -192 -237 -268 -532 -18
-70 -38 -197 -44 -285 -3 -49 -10 -119 -16 -155 -5 -36 -14 -126 -20 -200 -5
-74 -14 -189 -20 -255 -5 -66 -11 -174 -13 -240 -5 -151 10 -661 24 -820 10
-125 27 -382 36 -545 12 -231 4 -623 -16 -785 -23 -182 -34 -279 -56 -485 -8
-80 -24 -194 -34 -255 -10 -60 -21 -136 -25 -167 -4 -35 -11 -58 -19 -58 -23
0 -152 69 -188 102 -26 23 -50 62 -81 133 -354 811 -447 1000 -652 1315 -159
245 -199 314 -395 685 -42 78 -58 108 -127 230 -18 33 -56 105 -84 160 -28 55
-79 150 -114 210 -70 124 -185 343 -319 610 -50 99 -114 213 -141 254 -28 41
-61 91 -74 110 -46 68 -255 267 -334 318 -44 28 -118 64 -172 83 l-95 32 -21
72 c-11 39 -36 121 -54 181 -46 149 -60 208 -85 357 -11 70 -31 169 -44 220
-13 51 -41 163 -61 248 -44 187 -71 279 -136 474 -54 160 -83 218 -224 456
-201 337 -315 585 -385 834 -41 144 -104 310 -142 371 -80 127 -151 217 -453
581 -55 67 -118 145 -140 174 -171 224 -349 417 -443 482 -26 18 -74 53 -108
78 -170 130 -546 272 -788 299 -117 13 -184 12 -351 -5z m500 -233 c202 -55
394 -142 520 -235 39 -29 87 -65 108 -80 74 -54 166 -147 259 -264 52 -64 137
-171 190 -237 53 -66 151 -185 218 -265 162 -193 303 -388 345 -475 19 -38 67
-169 108 -290 136 -400 200 -542 392 -860 175 -291 220 -408 325 -840 22 -94
52 -215 65 -270 14 -55 34 -154 45 -220 21 -129 45 -224 110 -430 55 -178 57
-191 30 -198 -13 -3 -43 6 -78 25 -48 25 -66 29 -113 26 -74 -5 -155 -46 -230
-115 -68 -63 -100 -114 -123 -193 -15 -50 -15 -59 0 -109 21 -72 54 -137 124
-241 60 -90 69 -112 121 -300 53 -193 115 -355 175 -458 132 -226 168 -284
248 -402 46 -69 113 -172 147 -230 86 -144 139 -233 232 -385 90 -149 205
-379 268 -540 51 -129 135 -296 212 -421 30 -49 64 -109 77 -133 55 -110 147
-344 224 -570 46 -135 119 -336 161 -446 42 -110 83 -218 91 -239 l14 -39 -53
50 c-62 59 -108 77 -197 78 -77 0 -157 -35 -222 -98 -59 -57 -80 -114 -86
-229 -5 -116 6 -158 102 -388 36 -85 63 -156 61 -158 -13 -13 -73 29 -133 92
-83 88 -167 204 -280 390 -47 77 -113 181 -146 231 -34 50 -83 130 -111 178
-27 48 -139 232 -248 410 -144 234 -232 392 -324 577 -153 310 -330 650 -389
746 -24 39 -44 74 -44 77 0 4 -29 55 -65 113 -78 125 -152 271 -190 374 -15
41 -37 100 -48 130 -11 30 -45 107 -75 170 -30 63 -77 165 -104 225 -58 129
-86 176 -185 306 -88 116 -178 203 -236 229 -23 10 -84 24 -133 30 -86 11 -94
10 -157 -14 -112 -42 -227 -132 -326 -255 -58 -70 -120 -188 -206 -391 -32
-74 -72 -167 -91 -207 -18 -40 -42 -103 -54 -140 -11 -37 -38 -111 -60 -164
-22 -53 -53 -136 -69 -185 -16 -49 -57 -165 -91 -259 -34 -93 -79 -242 -100
-330 -42 -174 -144 -485 -211 -642 -22 -54 -87 -188 -142 -298 -244 -482 -327
-662 -416 -900 -57 -149 -119 -277 -216 -442 -98 -166 -207 -334 -230 -353
-19 -16 -19 -13 1 126 8 60 16 177 17 259 2 172 -11 230 -66 282 -56 54 -94
68 -182 68 -70 0 -87 -4 -134 -30 -57 -32 -110 -86 -173 -178 -57 -84 -123
-214 -138 -274 -8 -29 -17 -53 -22 -53 -13 0 -9 108 8 205 14 80 158 673 198
815 9 30 25 91 35 135 11 44 40 152 65 240 56 199 157 617 190 790 14 72 37
191 51 265 15 74 42 189 61 255 20 66 55 188 79 270 45 155 66 247 84 375 35
245 55 366 76 450 28 114 100 321 155 445 218 500 237 552 280 776 37 192 47
307 31 367 -20 71 -61 42 -61 -43 0 -57 -88 -443 -124 -545 -19 -52 -66 -169
-106 -260 -40 -91 -94 -214 -120 -275 -71 -165 -146 -398 -177 -552 -15 -76
-28 -139 -29 -141 -1 -2 -34 -9 -73 -15 -38 -6 -68 -14 -65 -19 3 -4 34 -8 70
-8 35 0 64 -4 64 -9 0 -4 -11 -6 -25 -3 -29 5 -75 -5 -75 -17 0 -5 20 -14 46
-21 42 -12 45 -15 42 -43 -3 -28 -9 -33 -68 -53 -50 -18 -78 -22 -120 -18 -51
5 -54 4 -36 -10 17 -14 49 -20 106 -20 8 0 36 4 61 8 l46 7 -12 -68 -11 -68
-53 1 c-114 4 -245 102 -300 227 -78 175 -141 502 -141 732 0 134 40 692 60
835 17 122 24 571 11 699 -15 140 -28 185 -59 189 l-22 3 0 -163 c-1 -321 -25
-778 -46 -846 -5 -16 -144 129 -201 211 -65 92 -87 144 -189 452 -51 154 -120
359 -153 456 -100 296 -147 538 -138 712 6 111 19 175 121 597 78 323 96 506
96 990 1 473 11 634 44 727 52 141 170 359 262 483 27 36 103 121 169 189 122
126 205 187 405 303 225 130 564 249 805 282 162 23 186 24 340 20 116 -3 159
-9 250 -33z m6751 -3999 c73 -108 132 -517 94 -654 -14 -48 -89 -131 -143
-157 -66 -32 -177 -22 -202 19 -11 17 31 57 102 96 51 29 77 36 145 42 100 8
112 27 33 54 -98 34 -176 19 -280 -51 -38 -26 -45 -27 -49 -13 -21 75 -58 439
-50 497 8 64 46 130 87 152 59 31 142 52 192 50 44 -2 52 -6 71 -35z m-442
-402 c19 -197 45 -340 70 -387 68 -133 221 -181 361 -114 107 50 200 170 212
272 11 94 27 53 58 -151 12 -79 16 -201 19 -490 7 -968 71 -1689 181 -2041 45
-145 58 -286 51 -569 -3 -140 -10 -291 -16 -335 -5 -44 -14 -190 -19 -326 -11
-271 4 -559 31 -602 8 -12 26 -53 41 -92 27 -68 59 -123 160 -275 63 -95 73
-115 167 -375 185 -507 221 -589 270 -615 19 -10 21 -9 16 7 -3 10 -30 115
-60 233 -30 118 -60 228 -66 244 -6 16 -9 30 -8 31 4 4 242 -263 281 -315 59
-79 79 -119 107 -213 41 -138 58 -252 69 -462 12 -240 20 -269 194 -700 19
-47 185 -372 228 -447 97 -169 129 -222 213 -348 49 -74 161 -231 248 -349
232 -311 264 -363 342 -563 90 -232 120 -413 119 -728 -1 -343 -26 -535 -87
-665 -57 -120 -242 -312 -359 -372 -64 -32 -249 -98 -346 -123 -141 -36 -238
-41 -431 -24 -273 24 -299 32 -470 147 -80 54 -192 131 -250 171 -58 41 -148
100 -200 132 -52 31 -151 92 -220 134 -69 42 -174 106 -235 141 -60 35 -164
97 -230 139 -66 42 -169 102 -230 134 -60 33 -124 71 -142 86 -38 34 -91 52
-253 86 -139 29 -154 35 -261 110 -178 123 -324 194 -614 299 -319 115 -467
188 -715 356 -140 93 -230 163 -386 294 -278 235 -552 506 -582 575 -31 72
-50 150 -58 230 -6 76 -42 265 -88 465 -95 417 -123 579 -131 751 -3 76 -8
155 -10 174 l-5 35 23 -28 c66 -83 346 -598 394 -726 14 -36 28 -70 33 -76 16
-21 73 -163 94 -234 19 -68 45 -105 62 -89 15 16 16 136 1 195 -45 175 -288
663 -487 978 -74 117 -208 351 -229 400 -12 28 -35 91 -51 140 -16 50 -41 119
-56 155 -145 359 -184 495 -184 643 0 109 15 152 77 213 29 30 59 54 67 54 7
0 37 -42 66 -92 29 -51 89 -149 135 -218 45 -69 118 -181 161 -250 193 -308
354 -475 471 -488 36 -3 58 -13 85 -38 20 -18 56 -38 80 -45 79 -21 213 10
306 70 25 16 48 28 51 26 21 -13 124 -247 147 -330 31 -113 66 -202 102 -258
14 -20 26 -36 27 -35 5 7 -34 295 -50 366 -16 71 -46 138 -120 265 l-27 48 25
48 c30 54 32 77 18 256 -10 142 -37 247 -111 435 -229 579 -289 739 -325 865
-38 130 -107 310 -161 416 -75 150 -184 350 -221 407 -20 29 -66 128 -103 220
-91 224 -186 412 -312 617 -57 94 -129 213 -158 265 -30 52 -99 163 -155 245
-177 264 -311 501 -360 635 -45 123 -66 190 -60 190 3 0 30 -23 61 -51 78 -70
124 -89 222 -90 162 -2 225 68 226 251 1 84 -3 107 -34 195 -19 55 -83 196
-143 314 -59 117 -106 215 -105 217 6 6 186 -55 251 -85 34 -15 89 -49 123
-74 66 -50 199 -185 236 -239 93 -138 126 -194 205 -353 50 -99 113 -221 141
-272 28 -50 57 -106 65 -125 8 -18 47 -91 87 -163 40 -71 91 -166 113 -210 22
-44 74 -141 117 -215 42 -74 101 -180 130 -235 182 -343 233 -431 369 -640
126 -195 247 -405 314 -545 95 -201 103 -219 155 -340 59 -135 257 -582 307
-690 19 -41 53 -118 76 -170 49 -112 185 -359 245 -445 44 -62 91 -112 98
-104 5 5 -93 231 -200 461 -76 166 -81 179 -89 210 l-7 28 65 -30 c36 -17 105
-39 153 -48 l89 -17 -7 -45 c-3 -25 -7 -88 -7 -140 0 -88 1 -94 15 -75 48 61
116 321 139 535 4 30 15 105 25 165 11 61 31 220 45 355 14 135 33 295 41 355
31 222 29 689 -6 1215 -28 424 -32 519 -34 795 -1 193 4 344 13 425 7 69 15
152 17 185 14 201 49 532 64 605 26 128 69 279 92 324 23 48 81 136 88 136 3
0 14 -81 24 -180z m-3691 -355 c47 -47 297 -556 297 -604 0 -5 -15 -13 -32
-16 -52 -12 -144 -62 -167 -91 -24 -31 -28 -74 -6 -74 8 0 35 14 60 32 35 25
58 33 106 36 l62 5 -6 -51 c-8 -68 -20 -88 -69 -113 -83 -42 -129 -25 -239 88
-72 74 -104 115 -228 300 -128 192 -151 256 -117 337 19 46 77 108 137 147 87
55 151 57 202 4z m1480 -4664 c15 -15 -10 -66 -58 -115 -45 -46 -111 -71 -177
-64 -45 4 -44 -21 2 -45 82 -43 210 1 276 94 20 27 38 49 41 49 6 0 111 -222
162 -344 49 -113 66 -198 48 -234 -16 -34 -150 -124 -216 -145 -29 -9 -75 -17
-100 -17 -43 0 -51 4 -78 38 -45 57 -182 410 -194 504 -18 131 16 211 115 269
45 27 58 30 110 25 32 -2 63 -9 69 -15z m-5498 -422 c58 -15 96 -56 102 -112
l5 -44 -48 -23 c-85 -40 -203 -24 -243 32 -24 34 -37 4 -14 -34 44 -75 166
-116 257 -85 l46 16 0 -57 c-1 -96 -37 -350 -57 -390 -29 -59 -69 -74 -188
-69 -85 3 -111 8 -176 36 -114 48 -125 67 -108 191 13 93 41 175 87 260 83
152 168 250 238 275 48 17 46 17 99 4z"/>
<path d="M12096 22297 c-17 -93 -27 -279 -36 -732 -18 -843 -15 -1514 5 -1493
2 2 15 75 29 163 24 154 25 191 37 930 10 603 10 808 0 948 -6 97 -15 187 -20
199 -7 20 -9 18 -15 -15z"/>
<path d="M13363 21265 c13 -770 26 -1091 53 -1299 30 -233 30 -232 -50 -425
-69 -167 -72 -191 -16 -136 45 43 116 181 151 289 l23 68 -22 172 c-29 222
-31 254 -42 684 -12 437 -32 693 -65 849 -13 63 -27 118 -31 122 -3 3 -4 -142
-1 -324z"/>
<path d="M10791 21057 c-1 -5 -8 -63 -16 -130 -8 -67 -19 -212 -24 -322 -11
-220 -10 -225 49 -297 26 -31 152 -134 199 -163 26 -15 5 20 -71 121 -118 157
-110 137 -102 236 7 94 -14 510 -27 543 -4 11 -8 16 -8 12z"/>
<path d="M11667 20873 c-57 -91 -116 -251 -152 -414 -17 -81 -11 -161 17 -212
16 -29 130 -165 140 -166 11 -2 -3 41 -44 131 -21 47 -41 108 -44 135 -7 56
22 180 85 368 39 116 52 195 31 195 -5 0 -20 -17 -33 -37z"/>
<path d="M14460 20318 c0 -35 12 -135 25 -223 33 -213 33 -304 -1 -392 -39
-103 -73 -215 -85 -276 -10 -59 8 -172 38 -230 17 -33 164 -190 171 -182 3 2
-6 22 -20 43 -77 116 -123 261 -113 350 4 30 29 119 57 199 27 80 52 169 55
199 8 80 -14 219 -63 394 -24 85 -44 161 -44 168 0 6 -4 12 -10 12 -6 0 -10
-27 -10 -62z"/>
<path d="M12967 20117 c-59 -115 -107 -263 -107 -327 0 -43 72 -290 97 -332
24 -41 49 -56 64 -41 10 10 2 51 -35 185 -51 191 -52 201 -31 273 30 97 83
355 74 355 -2 0 -30 -51 -62 -113z"/>
<path d="M14804 19813 c4 -21 38 -101 76 -178 61 -124 70 -148 75 -215 7 -91
12 -110 30 -110 19 0 25 33 25 140 l0 95 -53 99 c-49 92 -131 204 -151 205 -4
1 -5 -16 -2 -36z"/>
<path d="M14069 19037 c-100 -86 -145 -137 -215 -243 -59 -89 -175 -306 -189
-354 -4 -15 12 1 41 40 26 36 88 121 138 190 91 125 249 300 270 300 26 0 160
-160 273 -326 45 -65 83 -108 89 -101 7 7 -60 148 -115 241 -28 48 -51 89 -51
91 0 7 -93 158 -118 193 -13 17 -30 32 -37 32 -6 0 -45 -29 -86 -63z"/>
<path d="M11520 17771 c-23 -7 -21 -8 17 -15 46 -8 75 0 52 15 -16 10 -34 10
-69 0z"/>
<path d="M11317 17706 c-8 -20 31 -47 115 -81 73 -29 103 -30 103 -2 0 14 -23
27 -90 53 -123 48 -121 48 -128 30z"/>
<path d="M15598 17614 c-118 -28 -268 -131 -298 -204 -19 -47 -4 -48 43 -3
104 100 181 143 305 168 107 22 113 32 32 48 -14 3 -51 -1 -82 -9z"/>
<path d="M11382 17573 c2 -10 27 -30 57 -45 46 -23 67 -28 132 -28 77 0 103
10 80 33 -6 6 -48 13 -93 17 -48 3 -97 13 -117 23 -44 22 -63 22 -59 0z"/>
<path d="M15716 17511 c-3 -5 20 -12 51 -16 32 -4 79 -15 105 -26 26 -10 50
-15 52 -10 8 12 -23 36 -63 50 -40 13 -137 15 -145 2z"/>
<path d="M15503 17468 c-129 -66 -287 -323 -253 -412 16 -42 140 -62 140 -22
0 15 -27 40 -52 49 -27 10 -23 27 32 134 32 63 75 127 120 178 89 102 91 113
13 73z"/>
<path d="M15630 17380 c-9 -6 -10 -10 -3 -10 6 0 15 5 18 10 8 12 4 12 -15 0z"/>
<path d="M12115 17361 c-44 -8 -85 -27 -85 -40 0 -4 74 -6 164 -3 249 7 395
-22 585 -118 80 -40 111 -48 111 -31 0 16 -68 67 -128 96 -78 38 -183 74 -270
91 -76 14 -302 17 -377 5z"/>
<path d="M15855 17315 c34 -16 75 -19 75 -6 0 13 -27 21 -68 20 l-37 -1 30
-13z"/>
<path d="M15661 17279 c-109 -20 -240 -140 -229 -211 5 -36 23 -30 57 19 37
54 87 95 179 145 89 48 86 63 -7 47z"/>
<path d="M15997 17283 c-4 -3 -7 -33 -7 -66 0 -54 7 -74 80 -223 44 -90 85
-164 90 -164 17 0 11 73 -10 135 -11 32 -36 88 -56 123 -19 36 -40 90 -46 121
-12 69 -31 95 -51 74z"/>
<path d="M12376 17182 c-8 -13 -6 -15 79 -42 121 -39 190 -81 235 -142 l24
-33 -29 19 c-54 36 -142 75 -207 91 -130 34 -383 8 -402 -42 -10 -24 12 -51
46 -58 61 -13 263 -83 362 -125 103 -44 133 -44 97 1 -29 38 -111 78 -253 124
-71 24 -132 45 -135 49 -13 13 214 6 270 -9 62 -16 192 -77 270 -127 26 -17
51 -28 54 -24 16 16 0 93 -29 139 -50 78 -110 124 -202 152 -97 31 -171 42
-180 27z"/>
<path d="M11982 17168 c-8 -8 -12 -45 -12 -107 0 -90 -2 -99 -30 -141 -32 -47
-85 -203 -95 -280 l-7 -45 21 25 c11 14 43 71 70 126 28 56 64 123 80 150 28
43 31 56 30 123 -1 136 -20 186 -57 149z"/>
<path d="M12163 17173 c-23 -9 -13 -23 16 -23 35 0 61 9 61 21 0 9 -56 11 -77
2z"/>
<path d="M15851 17095 c-100 -47 -170 -65 -252 -65 -43 0 -80 -4 -84 -9 -9
-16 33 -33 94 -38 111 -10 331 72 331 124 0 20 -29 16 -89 -12z"/>
<path d="M15387 16983 c-11 -11 -8 -21 12 -40 10 -10 24 -37 30 -60 14 -51
113 -202 181 -275 96 -105 75 -12 -35 152 -41 61 -80 130 -85 151 -14 50 -80
96 -103 72z"/>
<path d="M15765 16951 c-107 -36 -118 -42 -65 -36 58 6 140 30 165 49 20 15
20 15 0 15 -11 -1 -56 -13 -100 -28z"/>
<path d="M15959 16904 c-12 -14 -11 -16 5 -13 11 2 21 10 24 17 5 17 -13 15
-29 -4z"/>
<path d="M12789 16822 c-119 -125 -145 -162 -170 -242 -27 -89 -32 -217 -10
-244 21 -25 29 -9 46 80 30 159 49 203 124 293 38 47 78 99 87 117 16 30 14
64 -4 64 -5 0 -37 -30 -73 -68z"/>
<path d="M12060 16863 c0 -33 58 -119 113 -170 94 -86 329 -190 373 -165 16 9
15 12 -9 33 -14 13 -63 39 -109 58 -133 55 -212 106 -287 187 -37 41 -71 74
-74 74 -4 0 -7 -8 -7 -17z"/>
<path d="M15990 16823 c-41 -25 -111 -61 -155 -79 -87 -36 -110 -64 -53 -64
40 0 136 36 193 72 61 39 126 118 97 118 -4 0 -41 -21 -82 -47z"/>
<path d="M15794 16825 c-10 -8 -14 -15 -8 -15 5 0 19 7 30 15 10 8 14 15 8 15
-5 0 -19 -7 -30 -15z"/>
<path d="M12046 16703 c24 -38 48 -58 124 -108 68 -43 152 -80 208 -91 52 -10
38 12 -20 31 -95 31 -236 114 -287 169 -32 34 -48 33 -25 -1z"/>
<path d="M15950 16683 c-25 -14 -65 -34 -90 -44 l-45 -18 39 -1 c43 0 132 43
147 72 13 24 2 23 -51 -9z"/>
<path d="M16003 16620 c-11 -16 -10 -18 1 -14 15 6 30 34 18 34 -4 0 -13 -9
-19 -20z"/>
<path d="M12090 16519 c0 -31 195 -74 302 -66 83 7 140 25 83 27 -175 7 -232
13 -287 30 -71 22 -98 25 -98 9z"/>
<path d="M12090 16485 c0 -3 46 -28 103 -55 108 -51 206 -77 232 -62 27 14 -2
29 -98 52 -76 17 -161 43 -219 65 -10 4 -18 4 -18 0z"/>
<path d="M16386 15854 c-45 -16 -76 -41 -76 -61 0 -16 -6 -17 65 12 37 15 80
25 112 25 56 0 75 13 44 29 -27 15 -98 12 -145 -5z"/>
<path d="M16438 15786 c-26 -7 -69 -29 -95 -50 -51 -40 -164 -169 -187 -214
-51 -100 -19 -94 74 13 151 177 221 220 342 213 63 -4 77 10 28 27 -59 20
-113 24 -162 11z"/>
<path d="M16675 15660 c21 -10 44 -16 49 -13 16 10 -26 33 -58 32 l-31 -1 40
-18z"/>
<path d="M16422 15575 c-112 -52 -261 -175 -213 -175 5 0 28 16 52 36 23 19
84 61 136 92 83 51 108 72 86 72 -5 0 -32 -11 -61 -25z"/>
<path d="M16540 15530 c-42 -15 -96 -38 -120 -50 -25 -12 -66 -33 -92 -46 -54
-27 -64 -50 -19 -41 34 7 199 75 289 119 107 53 69 65 -58 18z"/>
<path d="M11609 15295 c-74 -24 -134 -65 -95 -65 9 0 69 14 133 31 108 29 121
30 172 19 107 -23 106 -23 96 -12 -16 16 -148 52 -191 52 -21 -1 -73 -12 -115
-25z"/>
<path d="M16828 15266 c-117 -42 -258 -168 -258 -232 0 -12 22 4 68 48 69 67
141 118 225 157 26 13 47 27 47 32 0 13 -38 10 -82 -5z"/>
<path d="M11615 15199 c-66 -16 -60 -26 22 -33 144 -12 227 -44 276 -109 32
-42 89 -156 85 -169 -2 -6 -28 11 -58 37 -71 60 -214 130 -324 157 -77 19 -95
20 -143 10 -55 -11 -83 -26 -83 -43 0 -5 33 -9 73 -9 39 0 101 -7 137 -16 85
-20 240 -94 298 -142 57 -47 89 -68 121 -77 22 -7 23 -5 17 19 -4 15 -2 26 4
26 22 0 9 81 -23 152 -59 128 -104 165 -236 193 -80 17 -108 17 -166 4z"/>
<path d="M12057 15115 c32 -36 61 -65 65 -65 32 0 1 79 -42 110 -16 11 -40 20
-55 20 -25 0 -24 -3 32 -65z"/>
<path d="M11455 14961 c-9 -15 21 -27 110 -45 44 -9 148 -44 232 -78 146 -59
196 -68 143 -28 -73 55 -255 127 -370 146 -101 17 -107 17 -115 5z"/>
<path d="M11450 14887 c0 -29 92 -127 119 -127 18 0 13 9 -36 66 -51 61 -83
84 -83 61z"/>
<path d="M11855 14684 c-55 -13 -111 -28 -125 -34 -22 -11 -23 -13 -7 -21 33
-19 247 33 247 60 0 18 -14 17 -115 -5z"/>
<path d="M19405 19330 c41 -10 173 -12 178 -2 3 4 -43 7 -101 8 -63 0 -95 -2
-77 -6z"/>
<path d="M19067 19213 c-15 -14 -6 -41 18 -57 47 -31 61 -10 24 38 -21 27 -31
31 -42 19z"/>
<path d="M19856 19204 c-9 -22 -8 -24 9 -18 8 4 15 12 15 20 0 19 -16 18 -24
-2z"/>
<path d="M19235 19170 c-17 -28 81 -75 178 -86 89 -10 347 54 347 86 0 14 -44
13 -207 -7 -134 -16 -147 -16 -215 0 -85 20 -95 21 -103 7z"/>
<path d="M19698 19035 c-10 -10 -242 -35 -324 -35 -47 0 -100 6 -124 15 -53
19 -61 14 -22 -14 45 -32 116 -44 222 -36 151 10 320 44 320 66 0 9 -63 13
-72 4z"/>
<path d="M19695 18944 c-118 -83 -180 -98 -338 -82 -54 5 -102 7 -105 3 -16
-16 42 -43 113 -54 182 -27 257 -9 352 84 35 33 63 66 63 73 0 22 -34 12 -85
-24z"/>
<path d="M19847 18918 c-51 -68 -58 -100 -18 -79 18 10 71 87 71 104 0 19 -32
3 -53 -25z"/>
<path d="M19230 18766 c0 -23 91 -63 160 -70 36 -3 71 -2 79 3 9 6 -9 11 -55
16 -45 5 -89 17 -126 36 -40 20 -58 25 -58 15z"/>
<path d="M16148 18558 c-16 -5 -28 -14 -28 -18 0 -11 58 8 66 21 6 11 -3 10
-38 -3z"/>
<path d="M16430 18472 c-86 -13 -165 -50 -147 -69 7 -6 154 33 178 48 20 12 0
26 -31 21z"/>
<path d="M16488 18438 c-8 -13 -21 -41 -28 -63 -7 -22 -25 -67 -40 -100 -25
-57 -32 -64 -136 -132 -60 -39 -142 -84 -182 -99 -78 -30 -89 -50 -26 -47 57
2 140 36 221 90 107 72 139 105 179 189 53 107 62 238 12 162z"/>
<path d="M16047 18419 c-58 -38 -132 -119 -146 -160 -9 -27 -2 -22 57 37 37
38 90 88 117 111 59 49 40 58 -28 12z"/>
<path d="M16138 18150 c-64 -42 -86 -71 -32 -41 51 28 103 70 88 71 -6 0 -31
-14 -56 -30z"/>
<path d="M16335 18059 c-39 -23 -106 -59 -150 -81 -79 -39 -80 -39 -35 -34 56
6 216 85 254 125 42 44 15 40 -69 -10z"/>
<path d="M16263 17942 c-62 -31 -69 -45 -15 -30 40 11 112 45 112 53 0 13 -50
1 -97 -23z"/>
<path d="M16283 17855 c-18 -8 -33 -16 -33 -19 0 -8 59 15 66 25 7 11 6 11
-33 -6z"/>
<path d="M16495 17809 c-27 -22 -80 -59 -117 -81 -77 -46 -93 -62 -51 -52 81
19 233 125 233 162 0 20 -13 14 -65 -29z"/>
<path d="M19640 17383 c-17 -4 5 -10 64 -19 49 -8 91 -12 94 -10 16 17 -109
39 -158 29z"/>
<path d="M19385 17318 c-50 -157 -68 -269 -45 -283 5 -3 16 5 24 17 20 32 71
241 63 261 -7 20 -36 23 -42 5z"/>
<path d="M19735 17294 c-102 -20 -125 -27 -125 -35 0 -6 29 -7 78 -3 93 9 124
16 130 32 4 12 -38 15 -83 6z"/>
<path d="M19937 17284 c-15 -15 -6 -53 31 -130 43 -87 66 -114 84 -96 16 16 2
66 -40 152 -34 69 -57 92 -75 74z"/>
<path d="M19661 17159 c-63 -12 -127 -38 -147 -60 -22 -24 -19 -24 70 6 49 16
97 25 140 25 66 0 98 15 51 25 -56 11 -72 12 -114 4z"/>
<path d="M19640 17049 c-69 -31 -140 -79 -140 -95 0 -18 -4 -20 95 26 136 63
214 55 343 -32 l49 -33 -115 -2 c-69 -1 -154 -11 -215 -23 -159 -33 -188 -73
-35 -51 40 6 139 15 220 20 141 8 149 9 174 35 l27 26 -42 40 c-22 22 -74 55
-115 75 -89 43 -172 48 -246 14z"/>
<path d="M19371 16818 c-8 -29 -33 -98 -56 -153 -47 -109 -70 -184 -80 -258
-6 -47 0 -87 14 -87 13 0 49 74 79 165 17 50 43 122 57 160 33 85 41 217 14
223 -11 2 -19 -12 -28 -50z"/>
<path d="M16981 16738 c-29 -18 -62 -49 -74 -68 l-20 -35 39 36 c21 21 66 51
99 67 47 25 55 31 35 32 -14 0 -50 -15 -79 -32z"/>
<path d="M19507 16742 c-32 -6 -14 -36 28 -45 77 -17 235 -14 295 7 119 41
108 45 -106 43 -110 -1 -207 -3 -217 -5z"/>
<path d="M19930 16669 c0 -111 44 -272 80 -294 15 -9 12 71 -5 135 -8 30 -19
82 -25 115 -19 107 -21 115 -36 115 -11 0 -14 -16 -14 -71z"/>
<path d="M17225 16713 c-59 -13 -154 -48 -186 -68 -47 -30 -99 -83 -99 -101 0
-23 30 -16 103 26 63 36 244 100 286 100 9 0 23 5 31 10 39 26 -59 50 -135 33z"/>
<path d="M17523 16654 c-8 -21 25 -284 44 -346 7 -27 22 -52 33 -58 11 -6 20
-16 20 -23 0 -7 26 -38 58 -70 54 -54 82 -70 82 -47 0 15 -56 75 -100 105 -28
20 -37 31 -28 36 9 6 9 19 -4 61 -9 29 -26 114 -38 188 -12 74 -26 143 -32
153 -11 21 -27 22 -35 1z"/>
<path d="M19461 16551 c-30 -19 57 -64 166 -86 83 -17 173 -11 180 11 4 13
-57 29 -143 39 -29 3 -84 14 -122 24 -39 10 -75 15 -81 12z"/>
<path d="M17080 16435 c-10 -13 -9 -15 12 -15 13 0 33 7 44 15 18 14 17 14
-12 15 -17 0 -37 -7 -44 -15z"/>
<path d="M16797 16415 c-4 -8 20 -51 57 -102 35 -48 73 -108 86 -133 40 -79
70 -102 70 -52 0 54 -22 103 -80 180 -93 123 -119 144 -133 107z"/>
<path d="M17260 16386 c-63 -24 -155 -73 -174 -95 -27 -29 -10 -26 75 13 41
19 95 43 122 55 76 32 56 56 -23 27z"/>
<path d="M17341 16340 c-134 -48 -296 -179 -262 -213 7 -7 21 0 45 21 54 48
137 97 241 146 52 25 95 49 95 55 0 17 -60 12 -119 -9z"/>
<path d="M19396 16352 c30 -27 194 -56 179 -32 -3 6 -25 10 -48 10 -23 1 -60
7 -82 15 -46 17 -64 19 -49 7z"/>
<path d="M17490 16201 c-14 -5 -40 -16 -59 -26 -32 -16 -149 -58 -254 -91 -63
-20 -57 -40 9 -36 96 6 308 84 343 126 7 8 10 20 6 26 -7 11 -10 11 -45 1z"/>
<path d="M17425 16059 c-49 -17 -99 -36 -110 -43 -11 -7 -37 -18 -57 -25 -20
-7 -42 -19 -50 -28 -12 -15 -9 -15 27 -9 21 4 89 28 150 52 192 77 220 114 40
53z"/>
<path d="M17025 15963 c4 -27 16 -68 28 -93 18 -41 21 -43 25 -20 6 38 -32
160 -50 160 -6 0 -8 -18 -3 -47z"/>
<path d="M17344 15904 c-89 -48 -113 -64 -93 -64 20 0 175 75 183 89 13 21
-21 11 -90 -25z"/>
<path d="M18827 15138 c-3 -7 -12 -30 -21 -50 -23 -54 -4 -47 22 7 12 25 22
48 22 50 0 10 -18 4 -23 -7z"/>
<path d="M19868 14866 c-20 -34 -67 -103 -104 -152 -79 -106 -112 -173 -127
-259 -19 -112 20 -198 42 -93 11 50 66 170 146 318 39 72 88 212 83 234 -2 8
-20 -13 -40 -48z"/>
<path d="M15920 14865 c-35 -57 -19 -67 23 -14 34 43 36 49 19 49 -12 0 -29
-14 -42 -35z"/>
<path d="M19196 14824 c-17 -45 6 -181 44 -253 24 -47 107 -130 137 -138 32
-7 48 9 35 33 -6 11 -32 46 -59 80 -34 43 -61 94 -93 177 -25 64 -48 117 -51
117 -4 0 -10 -7 -13 -16z"/>
<path d="M18581 14226 c-6 -25 -11 -96 -11 -158 0 -62 -7 -144 -15 -183 -21
-100 -20 -135 5 -135 46 0 80 133 80 315 0 136 -12 205 -34 205 -8 0 -19 -20
-25 -44z"/>
<path d="M17871 13838 c15 -28 144 -157 257 -257 91 -80 127 -130 222 -301 68
-123 211 -346 254 -395 l27 -30 -29 60 c-16 33 -58 121 -95 195 -36 74 -95
198 -132 275 -60 125 -75 147 -137 207 -80 78 -205 173 -300 229 -36 21 -69
39 -73 39 -3 0 0 -10 6 -22z"/>
<path d="M18692 13820 c-27 -60 -62 -155 -62 -169 0 -23 47 56 65 111 19 55
16 100 -3 58z"/>
<path d="M20010 13693 c0 -17 78 -139 158 -248 79 -107 155 -275 200 -440 50
-182 80 -265 179 -494 132 -306 278 -579 300 -558 2 2 -6 26 -17 53 -12 26
-50 125 -86 219 -96 251 -103 269 -159 405 -58 140 -97 255 -149 441 -38 139
-124 313 -193 396 -21 25 -56 69 -79 99 -38 50 -135 144 -148 144 -3 0 -6 -8
-6 -17z"/>
<path d="M17321 12923 c-24 -90 -32 -263 -11 -263 12 0 19 36 32 162 9 88 9
121 1 129 -9 9 -14 1 -22 -28z"/>
<path d="M18733 12713 c-12 -32 25 -90 397 -608 129 -180 178 -241 187 -231 3
2 -22 47 -55 98 -32 51 -105 172 -162 268 -160 272 -314 490 -345 490 -9 0
-19 -7 -22 -17z"/>
<path d="M16970 12555 c0 -8 9 -19 19 -25 29 -15 114 -12 137 4 18 14 18 15
-9 25 -44 17 -147 14 -147 -4z"/>
<path d="M17536 12372 c-5 -8 51 -101 133 -222 54 -80 218 -243 309 -307 37
-26 128 -89 202 -142 74 -52 182 -129 240 -171 174 -128 290 -197 290 -172 0
10 -138 129 -264 227 -218 170 -297 230 -386 294 -135 97 -275 234 -369 360
-91 122 -137 161 -155 133z"/>
<path d="M16833 12144 c-11 -29 5 -133 29 -186 34 -73 92 -129 184 -177 49
-25 120 -77 189 -137 61 -53 126 -108 145 -123 19 -14 93 -73 164 -130 296
-237 566 -430 696 -496 65 -33 74 -27 18 10 -180 117 -395 288 -636 505 -357
321 -451 397 -549 445 -114 57 -184 148 -199 259 -7 46 -28 63 -41 30z"/>
<path d="M5556 23521 c-10 -11 -24 -52 -33 -92 -19 -96 -47 -149 -134 -254
-55 -67 -72 -94 -71 -117 1 -53 22 -65 128 -72 52 -4 120 -14 152 -22 36 -9
284 -136 677 -345 341 -182 625 -335 630 -341 7 -7 -10 -8 -50 -4 -33 3 -391
20 -795 37 l-735 31 -70 33 c-38 17 -92 49 -118 69 -59 45 -94 53 -139 32 -40
-19 -58 -51 -58 -102 0 -117 -151 -406 -293 -563 -95 -105 -131 -197 -89 -233
35 -31 65 -39 184 -47 l123 -7 1130 -603 c622 -332 1146 -616 1165 -631 19
-15 59 -56 88 -91 108 -129 108 -129 139 -129 48 0 73 35 73 102 0 31 9 86 21
123 21 68 53 107 163 201 24 21 36 40 36 58 0 44 -30 63 -107 70 -37 4 -105
13 -150 21 -79 13 -110 28 -992 502 l-910 488 51 3 c53 3 2133 -53 2366 -64
131 -6 134 -7 160 -35 32 -37 74 -38 107 -4 21 20 25 34 25 83 0 119 46 208
148 287 62 47 76 67 68 100 -11 42 -31 52 -123 60 -152 12 -209 29 -328 95
-61 34 -564 303 -1120 598 -555 294 -1029 551 -1052 569 -23 19 -74 74 -114
123 -63 80 -75 90 -104 90 -19 0 -39 -8 -49 -19z"/>
<path d="M27728 22933 c-9 -10 -22 -31 -31 -48 -22 -43 -54 -70 -117 -99 -37
-17 -474 -115 -1365 -307 l-1310 -282 -120 13 c-226 25 -211 25 -229 -3 -20
-29 -15 -42 40 -122 51 -74 102 -175 139 -278 30 -83 68 -127 109 -127 13 0
51 23 86 51 119 95 163 110 595 199 215 45 398 84 407 86 15 4 12 -5 -11 -50
-32 -60 -46 -141 -33 -196 8 -34 9 -35 68 -41 74 -7 153 -48 200 -103 41 -47
72 -122 58 -141 -5 -8 -153 -138 -328 -291 -340 -294 -372 -317 -510 -351 -57
-14 -72 -22 -87 -47 -34 -56 -26 -81 54 -166 160 -167 255 -359 302 -610 10
-52 25 -103 33 -112 36 -42 83 -9 135 93 82 159 67 145 1116 1060 1059 925
1033 904 1176 939 28 7 58 14 68 17 22 6 47 54 47 91 0 24 -16 47 -76 108
-160 165 -256 360 -300 606 -18 102 -33 128 -74 128 -15 0 -34 -8 -42 -17z
m-633 -682 c-61 -59 -560 -491 -567 -491 -4 0 -8 9 -8 20 0 34 -58 175 -90
219 -17 22 -48 53 -71 68 -27 17 -36 29 -28 32 25 9 743 169 764 170 19 1 19
1 0 -18z"/>
<path d="M8033 11448 c-11 -13 -35 -53 -52 -90 -17 -37 -50 -90 -72 -118 -60
-76 -2016 -1638 -2089 -1668 -30 -13 -90 -32 -134 -42 -92 -22 -116 -40 -116
-86 0 -35 -4 -31 136 -134 163 -119 289 -283 374 -484 37 -88 53 -114 75 -125
46 -22 75 -5 108 64 15 33 51 94 79 135 46 68 78 97 355 318 168 134 306 242
307 240 2 -2 -81 -203 -183 -448 -144 -344 -194 -452 -219 -477 -17 -18 -66
-48 -107 -67 -82 -38 -101 -64 -90 -123 6 -34 23 -50 117 -111 157 -102 301
-286 399 -512 48 -111 54 -120 84 -120 35 0 56 33 76 125 11 48 29 114 40 148
15 46 396 876 440 959 8 14 18 11 84 -27 121 -69 249 -107 380 -112 127 -6
206 8 332 56 149 58 348 198 517 366 116 115 185 207 241 320 62 126 78 203
72 345 -4 98 -10 131 -40 222 -90 267 -287 560 -600 890 -260 274 -311 338
-378 483 -20 45 -45 85 -54 89 -32 12 -62 6 -82 -16z m376 -1023 c55 -50 139
-176 163 -243 61 -173 -61 -354 -419 -624 -327 -245 -535 -284 -719 -133 -67
55 -174 198 -174 234 0 12 915 743 971 775 30 18 59 26 91 26 41 0 54 -5 87
-35z"/>
<path d="M25178 11333 c-8 -10 -34 -49 -57 -86 -24 -37 -55 -76 -70 -86 -14
-10 -80 -38 -146 -62 -246 -89 -404 -188 -560 -351 -152 -158 -314 -427 -379
-629 -86 -269 -80 -532 18 -743 143 -311 403 -461 766 -443 287 14 627 140
945 352 412 273 753 328 930 151 64 -64 85 -120 85 -229 0 -156 -79 -317 -230
-467 -182 -183 -380 -286 -500 -259 -95 21 -161 90 -182 191 -10 49 -9 63 8
117 12 34 18 63 16 66 -9 9 -69 5 -124 -6 -128 -27 -253 -130 -299 -246 -32
-81 -32 -213 0 -296 42 -106 175 -221 281 -242 74 -14 70 -9 63 -91 -5 -66 -4
-74 11 -74 18 0 33 15 88 90 54 72 104 103 234 145 251 80 485 226 695 435
121 119 201 227 273 368 185 362 205 702 59 983 -105 203 -349 410 -534 454
-83 19 -250 19 -347 -1 -228 -46 -540 -190 -807 -372 -95 -65 -312 -172 -410
-202 -44 -14 -108 -24 -170 -27 -131 -7 -190 14 -279 98 -171 160 -158 360 40
608 109 135 245 231 381 266 34 9 102 15 169 15 106 0 114 1 143 26 32 27 54
84 44 112 -4 9 -21 34 -39 55 -48 57 -58 107 -50 246 7 116 7 119 -16 135 -28
20 -32 20 -50 -1z"/>
<path d="M9993 9138 c-27 -13 -31 -23 -49 -127 -8 -47 -25 -110 -37 -140 -31
-76 -1453 -2101 -1515 -2159 -26 -24 -78 -62 -117 -84 -97 -57 -105 -65 -105
-109 0 -45 21 -63 85 -74 154 -26 627 -325 1205 -761 205 -155 229 -178 308
-304 61 -98 76 -109 127 -96 18 5 37 33 80 123 50 103 67 127 146 207 94 97
103 116 69 158 -15 20 -34 27 -92 37 -126 20 -192 48 -331 141 -293 194 -536
397 -552 463 -6 23 21 67 212 339 417 594 387 553 414 550 73 -10 331 -174
429 -273 37 -37 84 -100 110 -145 50 -90 64 -103 102 -104 30 0 28 -1 118 135
33 50 78 111 100 137 74 86 51 132 -79 154 -153 27 -222 63 -436 229 -98 76
-169 151 -159 168 15 24 358 513 387 550 24 31 35 37 66 37 73 0 284 -122 571
-330 164 -120 203 -159 273 -275 48 -80 58 -90 86 -93 35 -4 81 20 81 42 0 8
21 55 46 105 36 73 64 110 135 183 66 68 89 99 89 118 0 47 -20 59 -123 81
-54 11 -121 29 -149 40 -106 42 -894 605 -1188 849 -106 88 -210 191 -210 208
0 10 -45 32 -63 31 -7 0 -22 -5 -34 -11z"/>
<path d="M22625 8704 c-195 -30 -314 -64 -464 -135 -220 -104 -439 -284 -603
-497 -123 -158 -255 -241 -385 -242 -70 0 -103 -20 -103 -63 0 -34 17 -50 103
-95 160 -85 127 -45 915 -1121 400 -546 738 -1014 750 -1039 26 -49 72 -218
72 -262 0 -36 35 -80 65 -80 14 0 32 12 47 30 167 220 295 322 626 504 255
140 298 170 422 295 257 259 381 561 381 926 0 333 -108 648 -338 988 -285
423 -640 680 -1063 772 -73 16 -361 29 -425 19z m-22 -524 c87 -22 188 -70
292 -138 98 -65 352 -322 461 -467 351 -466 505 -808 465 -1030 -25 -139 -127
-280 -299 -413 l-78 -60 -684 936 c-377 514 -696 951 -710 970 l-25 35 49 43
c144 127 340 173 529 124z"/>
<path d="M19865 7349 c-232 -33 -459 -94 -740 -197 -336 -123 -411 -143 -557
-146 -112 -3 -138 -16 -138 -72 0 -26 12 -47 59 -100 33 -37 73 -92 90 -123
21 -40 124 -402 362 -1271 310 -1134 332 -1221 333 -1300 1 -47 -5 -118 -13
-159 -19 -94 -6 -124 52 -129 30 -3 50 5 105 41 191 126 367 178 621 182 139
2 155 4 174 23 33 34 26 75 -21 125 -22 25 -62 77 -88 116 -45 68 -52 89 -150
449 -57 207 -103 380 -101 383 3 9 655 -671 679 -710 17 -26 23 -55 27 -133 6
-94 8 -101 34 -124 45 -38 81 -32 174 30 181 119 395 176 669 176 108 0 124 6
124 50 0 30 -23 53 -126 128 -39 29 -102 85 -140 125 -114 120 -649 728 -649
737 0 4 28 29 62 54 78 59 178 167 222 240 86 143 116 277 108 471 -7 150 -29
253 -91 440 -140 419 -332 624 -646 691 -72 15 -336 17 -435 3z m18 -461 c104
-31 194 -164 272 -401 114 -349 139 -615 70 -761 -58 -124 -218 -216 -413
-239 -38 -5 -44 -2 -51 16 -5 12 -77 274 -162 582 -121 445 -153 573 -153 625
-1 105 28 134 171 169 90 23 208 26 266 9z"/>
<path d="M12753 7329 c-445 -52 -821 -348 -1077 -849 -161 -313 -223 -544
-233 -860 -22 -741 341 -1281 992 -1476 76 -22 110 -27 215 -27 133 -1 196 9
325 50 204 66 414 192 592 353 30 28 78 58 115 73 52 20 63 29 63 48 0 18 -14
31 -60 57 -80 45 -128 93 -167 169 -49 94 -82 95 -113 4 -25 -77 -70 -137
-136 -186 -238 -175 -476 -221 -720 -140 -194 65 -327 210 -375 411 -23 92
-23 315 0 448 36 212 123 508 216 736 162 393 340 627 558 733 74 36 93 40
176 45 116 6 174 -7 291 -63 215 -104 315 -263 302 -477 -3 -51 -9 -103 -12
-115 -6 -18 -3 -23 16 -27 121 -22 192 -44 268 -81 l89 -43 6 41 c9 54 105
304 171 443 31 67 69 130 95 157 31 34 40 51 35 66 -7 22 -28 27 -135 34 -70
5 -104 18 -188 75 -72 49 -88 39 -85 -49 2 -63 2 -64 -15 -39 -102 150 -252
283 -396 354 -223 110 -554 165 -813 135z"/>
<path d="M16190 6824 c-98 -13 -210 -38 -288 -65 -531 -187 -920 -723 -1002
-1379 -15 -122 -12 -361 5 -494 106 -810 706 -1417 1399 -1416 353 1 665 137
931 406 343 347 530 890 487 1416 -14 165 -47 335 -92 469 -34 103 -123 295
-173 374 -223 355 -532 584 -897 666 -83 18 -299 32 -370 23z m254 -319 c179
-85 333 -360 412 -735 77 -367 70 -859 -17 -1231 -85 -366 -260 -650 -437
-710 -143 -50 -302 28 -422 207 -169 253 -263 622 -277 1085 -16 561 108 1038
335 1281 121 130 269 168 406 103z"/>
</g>
</svg>
