<svg width="50" height="28" viewBox="0 0 50 28" fill="none" xmlns="http://www.w3.org/2000/svg">
<path d="M40.4669 0.487956C39.9909 0.517148 39.7815 0.537456 39.4452 0.589493C36.776 1.00072 34.4254 2.62785 33.0839 4.9924C32.1079 6.71092 31.7372 8.70359 32.0279 10.6785C32.4417 13.4949 34.2008 15.9508 36.7481 17.267C37.8447 17.8343 39.0403 18.1605 40.3019 18.2379C40.6053 18.257 41.3186 18.2456 41.6029 18.2189C42.7858 18.1059 43.8544 17.7963 44.8698 17.2746C47.1354 16.1095 48.793 14.0356 49.4212 11.5796C49.8058 10.0782 49.7931 8.50305 49.3831 7.00919C48.7181 4.58372 47.0376 2.54409 44.7683 1.40941C43.7758 0.913143 42.6906 0.61107 41.5394 0.512071C41.3287 0.493033 40.6294 0.477802 40.4669 0.487956ZM41.1472 5.83643C41.9874 5.9202 42.7363 6.27304 43.329 6.8645C44.2251 7.76183 44.5728 9.05516 44.2492 10.2888C44.121 10.7737 43.8633 11.2712 43.5409 11.6558C43.1551 12.114 42.6233 12.4922 42.0788 12.6965C41.6536 12.8552 41.2652 12.925 40.8032 12.9225C40.392 12.9212 40.0633 12.8679 39.6863 12.7422C39.1558 12.5645 38.7128 12.2904 38.308 11.8855C37.8447 11.421 37.5337 10.8803 37.3764 10.2596C37.2012 9.573 37.2304 8.87366 37.4652 8.19083C37.5312 7.99664 37.7165 7.62095 37.8295 7.44834C38.4476 6.51039 39.4109 5.93162 40.5177 5.83262C40.6344 5.82247 41.0254 5.82501 41.1472 5.83643Z" fill="black"/>
<path d="M19.7051 9.23666C16.9293 14.0457 14.6574 17.9828 14.6574 17.9879C14.6574 17.9917 19.2037 17.9955 24.7616 17.9955C30.911 17.9955 34.8633 17.9904 34.8608 17.9841C34.8519 17.9562 24.7667 0.493032 24.7604 0.493032C24.7566 0.493032 22.4821 4.4276 19.7051 9.23666ZM26.1882 11.3359L27.6098 13.8008L26.1857 13.8046C25.4013 13.8058 24.1181 13.8058 23.3338 13.8046L21.9059 13.8008L23.33 11.3347C24.1131 9.97915 24.7566 8.86986 24.7604 8.86986C24.7642 8.87113 25.4064 9.98042 26.1882 11.3359Z" fill="black"/>
<path d="M2.94 1.87648L2.93619 2.80301L1.47279 1.92598C0.666836 1.44368 0.00557478 1.05149 0.00303635 1.0553C0.000497919 1.05783 -0.000771296 4.80202 0.00049792 9.37501L0.00430557 17.6909L1.4639 16.8151C2.26732 16.3341 2.92731 15.9394 2.93366 15.9394C2.93873 15.9394 2.94254 16.357 2.94254 16.8659V17.7937L6.20189 17.7886C9.5945 17.7836 9.52089 17.7848 10.0755 17.7277C10.6391 17.6706 11.2216 17.5589 11.7611 17.4041C13.4745 16.9141 15.0648 15.7592 16.037 14.3021C16.7351 13.255 17.1768 12.0327 17.3469 10.6785C17.4154 10.1378 17.4421 9.37247 17.4129 8.83178C17.3189 7.12596 16.8544 5.6689 15.999 4.39714C15.1702 3.166 13.9327 2.17221 12.5048 1.58964C11.8309 1.31549 11.03 1.11622 10.2025 1.01976C9.65035 0.955028 9.8255 0.958836 6.26535 0.953759L2.94254 0.948682L2.94 1.87648ZM8.42048 6.09154C11.4247 7.89383 13.8819 9.36993 13.8806 9.3712C13.8781 9.37247 11.4349 10.8371 8.45094 12.6267C5.46701 14.4151 3.006 15.8899 2.98442 15.9039L2.94254 15.9292V9.37247C2.94254 5.76662 2.94508 2.8157 2.94889 2.8157C2.95269 2.8157 5.41497 4.29053 8.42048 6.09154Z" fill="black"/>
<path d="M6.35038 6.04078C5.73101 6.10424 5.13194 6.34412 4.64329 6.72362C4.50114 6.83404 4.25872 7.06884 4.13306 7.21988C3.80307 7.61207 3.53907 8.15783 3.43246 8.66552C3.3398 9.10339 3.33727 9.60854 3.42484 10.0388C3.68122 11.2928 4.62044 12.2891 5.84904 12.6064C6.14223 12.6813 6.27169 12.6965 6.655 12.6965C7.03068 12.6953 7.16776 12.6813 7.44064 12.6128C7.7681 12.5315 8.18313 12.3513 8.45094 12.1711C9.26324 11.6291 9.776 10.8194 9.92577 9.84081C9.9575 9.62885 9.96384 9.18462 9.93719 8.97774C9.83819 8.20098 9.512 7.53084 8.97132 6.99142C8.70732 6.72615 8.43571 6.53323 8.1019 6.3695C7.77318 6.20704 7.48253 6.11566 7.14111 6.06362C6.94565 6.03443 6.52934 6.02174 6.35038 6.04078Z" fill="black"/>
<path d="M17.4053 19.0502C16.5244 19.1327 15.7032 19.4767 15.0318 20.0415C14.8732 20.176 14.5939 20.4629 14.4619 20.6291C13.9873 21.2269 13.6953 21.9009 13.5786 22.6726C13.543 22.8998 13.5303 23.4024 13.5519 23.6397C13.6471 24.6526 14.0786 25.5702 14.7957 26.281C15.6068 27.0844 16.744 27.5337 17.8812 27.4981C18.9207 27.4651 19.8548 27.0869 20.6329 26.385C20.7103 26.314 20.775 26.2518 20.775 26.2467C20.775 26.2391 20.2394 25.7047 19.681 25.1539L19.4436 24.9204L19.3637 24.9965C18.9042 25.4331 18.2302 25.6679 17.5868 25.6134C16.5168 25.5232 15.669 24.7642 15.4545 23.7057C15.4291 23.5801 15.4253 23.523 15.4253 23.2691C15.4253 23.0153 15.4291 22.9582 15.4545 22.8325C15.5763 22.2284 15.9114 21.7054 16.4038 21.3513C16.6361 21.1838 17.0016 21.0251 17.291 20.9655C17.5626 20.9084 17.8761 20.902 18.1477 20.9464C18.6009 21.0201 19.0222 21.2269 19.3573 21.5379L19.4703 21.642L19.5477 21.5658C19.5908 21.5239 19.8967 21.2308 20.228 20.9147L20.8283 20.3398L20.723 20.2395C20.0198 19.5732 19.2355 19.1962 18.2874 19.068C18.1109 19.0439 17.5842 19.0337 17.4053 19.0502Z" fill="black"/>
<path d="M24.4304 19.1721C24.3986 19.1746 24.2908 19.1873 24.1892 19.2013C23.3147 19.3218 22.5075 19.7128 21.8653 20.3283C21.2789 20.8906 20.8575 21.6369 20.6811 22.4264C20.6189 22.7081 20.5961 22.9074 20.5884 23.2336C20.5808 23.5725 20.5923 23.754 20.643 24.0497C20.7585 24.7325 21.0339 25.3519 21.4807 25.9281C21.6165 26.1033 21.9643 26.4548 22.1394 26.5945C22.6408 26.9943 23.2551 27.2874 23.8656 27.4194C24.2501 27.5032 24.7159 27.5349 25.0916 27.5032C26.2999 27.4004 27.3737 26.809 28.0997 25.8443C28.4741 25.3455 28.7292 24.7807 28.8523 24.1703C28.9145 23.8606 28.9285 23.7108 28.9285 23.3389C28.9285 22.9747 28.9158 22.8312 28.8587 22.5393C28.6962 21.7143 28.3078 20.9845 27.7113 20.388C27.0081 19.6848 26.1121 19.2673 25.1157 19.1759C24.9812 19.1645 24.5649 19.1619 24.4304 19.1721ZM25.0561 21.0607C25.4534 21.1127 25.8367 21.2688 26.1476 21.5074C26.2707 21.6014 26.4814 21.8108 26.5779 21.9364C26.9955 22.4746 27.149 23.1701 26.9993 23.8453C26.7657 24.8937 25.8328 25.6375 24.754 25.6362C23.797 25.6349 22.9555 25.0511 22.6078 24.1487C22.4149 23.6499 22.4149 23.0267 22.609 22.5254C22.9149 21.7334 23.6168 21.1762 24.4557 21.0607C24.622 21.0378 24.8835 21.0378 25.0561 21.0607Z" fill="black"/>
<path d="M46.4513 19.3599C45.4498 19.4818 44.6515 19.9768 44.2796 20.7066C44.121 21.0188 44.0436 21.4224 44.0766 21.7626C44.121 22.2144 44.2961 22.5812 44.6287 22.915C44.8406 23.1257 45.1084 23.3135 45.4359 23.4773C45.7354 23.627 46.0134 23.7324 46.7813 23.9926C46.9945 24.0636 47.2433 24.1525 47.3334 24.1893C47.7865 24.3733 48.02 24.5383 48.1177 24.7439C48.1571 24.8264 48.1584 24.8366 48.1584 24.9889C48.1584 25.145 48.1584 25.1488 48.1152 25.2275C48.0555 25.3367 47.9591 25.4204 47.803 25.4979C47.2902 25.7492 46.5401 25.706 46.0362 25.3938C45.9753 25.3557 45.8788 25.2783 45.8167 25.2174C45.6466 25.0511 45.5603 24.9077 45.4854 24.6716C45.4625 24.598 45.4435 24.5371 45.4422 24.5345C45.4397 24.532 43.6933 24.9635 43.6882 24.9686C43.6831 24.9737 43.7694 25.2504 43.8049 25.3455C43.8989 25.5943 44.088 25.9167 44.2695 26.1388C44.7086 26.677 45.3927 27.0806 46.1466 27.2481C47.5136 27.5514 48.9021 27.144 49.5888 26.2391C49.9467 25.7669 50.0787 25.1552 49.9543 24.5421C49.8083 23.8225 49.3222 23.2577 48.4833 22.8338C48.1825 22.6815 47.9769 22.6002 47.3397 22.3832C46.7241 22.1738 46.601 22.1294 46.4081 22.043C46.1479 21.9276 45.988 21.8133 45.9296 21.7004C45.87 21.5836 45.9283 21.3805 46.054 21.2714C46.4043 20.9629 47.2839 20.949 47.7052 21.2447C47.8436 21.3412 47.9274 21.444 48.0149 21.6217C48.0568 21.708 48.0949 21.7778 48.0987 21.7778C48.1012 21.7778 48.4833 21.6407 48.9453 21.4719L49.7855 21.166L49.7233 21.0251C49.5824 20.7053 49.3958 20.4299 49.156 20.19C48.68 19.7153 48.0657 19.4424 47.2851 19.3599C47.063 19.3371 46.6416 19.3371 46.4513 19.3599Z" fill="black"/>
<path d="M0.315263 27.1973H2.13024V25.5144C2.13024 24.5891 2.13532 23.8339 2.1404 23.8365C2.14674 23.8377 2.8245 24.5954 3.64696 25.5182L5.14209 27.1973H7.51679L7.43937 27.1186C7.13603 26.8077 4.57983 24.0573 4.58871 24.0497C4.59379 24.0446 4.65091 24.0306 4.7131 24.018C5.33628 23.8936 5.93662 23.5725 6.25646 23.1955C6.41131 23.0127 6.56996 22.7398 6.62707 22.5571C6.70577 22.3083 6.71846 22.2144 6.71846 21.8857C6.71846 21.6179 6.71465 21.5633 6.68927 21.4364C6.61184 21.0543 6.44431 20.7104 6.20062 20.4311C5.80081 19.9742 5.20301 19.6455 4.52906 19.5135C4.1318 19.4361 4.21049 19.4386 2.17847 19.4335L0.315263 19.4285V27.1973ZM3.9833 21.1356C4.26253 21.1813 4.41991 21.2346 4.60141 21.3463C4.80956 21.4744 4.90982 21.6471 4.90982 21.8768C4.90982 22.2436 4.62171 22.486 4.05945 22.5914C3.91984 22.618 3.87161 22.6193 3.0225 22.6243L2.13024 22.6294V21.8755C2.13024 21.4618 2.13405 21.1178 2.1404 21.1127C2.14547 21.1076 2.53258 21.1051 2.99966 21.1089C3.71549 21.114 3.87161 21.1178 3.9833 21.1356Z" fill="black"/>
<path d="M7.76556 27.1846H13.2359V25.5093H9.59323V24.1131H12.944V22.4251H9.59323V21.1051H13.2359V19.4297H7.76556V27.1846Z" fill="black"/>
<path d="M29.4057 27.1973H31.2334L31.2397 23.8314L34.2351 27.1973L37.0083 27.191C38.5339 27.1872 39.8501 27.1808 39.9338 27.177C41.0711 27.1263 42.0547 26.7442 42.8111 26.0588C43.5803 25.362 44.0004 24.3086 43.9585 23.1803C43.9052 21.7181 43.1792 20.5809 41.8821 19.926C41.4772 19.7217 41.0812 19.5935 40.5964 19.5122C40.142 19.4361 40.2156 19.4386 38.2686 19.4335L36.4752 19.4285L36.4689 27.0476L35.0727 25.5537C34.3049 24.7325 33.6779 24.0573 33.6791 24.0522C33.6804 24.0484 33.7439 24.0319 33.8188 24.0154C34.1284 23.9507 34.4851 23.8225 34.7237 23.6892C34.9407 23.5686 35.0854 23.4608 35.2504 23.2945C35.4243 23.1219 35.522 22.9861 35.6363 22.7614C35.9028 22.2334 35.8901 21.4795 35.602 20.8893C35.2745 20.2179 34.5308 19.6963 33.6487 19.5198C33.2248 19.4348 33.3073 19.4374 31.2626 19.4335L29.4057 19.4285V27.1973ZM32.8605 21.1178C33.2654 21.1432 33.5332 21.2244 33.7667 21.3919C33.9444 21.5176 34.0282 21.7245 33.999 21.9618C33.9761 22.1459 33.8467 22.3235 33.6576 22.4289C33.5484 22.4898 33.339 22.5584 33.1613 22.5914C33.0242 22.618 32.9735 22.6193 32.1256 22.6243L31.2334 22.6294V21.1051H31.9479C32.3401 21.1051 32.7513 21.1114 32.8605 21.1178ZM40.0417 21.1368C40.7017 21.2181 41.1992 21.4351 41.5648 21.8019C41.7653 22.0037 41.8732 22.17 41.9874 22.4581C42.094 22.7234 42.1359 22.9645 42.1359 23.3135C42.1359 23.726 42.0801 23.9875 41.9202 24.3238C41.7679 24.6437 41.5864 24.8493 41.2614 25.0676C41.0393 25.2161 40.8388 25.3037 40.5316 25.3887C40.161 25.4902 39.9161 25.5093 39.0048 25.5093H38.3029V21.1026L39.0873 21.1089C39.713 21.114 39.9046 21.1191 40.0417 21.1368Z" fill="black"/>
</svg>
